<svg width="50" height="50" viewBox="0 0 50 50" fill="none" xmlns="http://www.w3.org/2000/svg">
<path d="M8.33333 0C3.73095 0 0 3.73095 0 8.33333V41.6667C0 46.269 3.73095 50 8.33333 50H41.6667C46.269 50 50 46.269 50 41.6667V8.33333C50 3.73095 46.269 0 41.6667 0H8.33333ZM10.8166 10.7143H20.266L26.9764 20.2497L35.119 10.7143H38.0952L28.3203 22.1587L40.3739 39.2857H30.9268L23.1399 28.2227L13.6905 39.2857H10.7143L21.7959 26.3137L10.8166 10.7143ZM15.3739 13.0952L32.1684 36.9048H35.8166L19.022 13.0952H15.3739Z" fill="white"/>
</svg>
