<svg width="50" height="50" viewBox="0 0 50 50" fill="none" xmlns="http://www.w3.org/2000/svg">
<path d="M44.0476 0H5.95238C2.67024 0 0 2.67024 0 5.95238V44.0476C0 47.3298 2.67024 50 5.95238 50H44.0476C47.3298 50 50 47.3298 50 44.0476V5.95238C50 2.67024 47.3298 0 44.0476 0ZM39.2929 21.8131C39.0226 21.8381 38.7488 21.8548 38.4714 21.8548C35.3488 21.8548 32.6048 20.2488 31.0083 17.8214C31.0083 24.1893 31.0083 31.4345 31.0083 31.556C31.0083 37.1619 26.4631 41.7071 20.8571 41.7071C15.2512 41.7071 10.706 37.1619 10.706 31.556C10.706 25.95 15.2512 21.4048 20.8571 21.4048C21.069 21.4048 21.2762 21.4238 21.4845 21.4369V26.4393C21.2762 26.4143 21.0714 26.3762 20.8571 26.3762C17.9952 26.3762 15.6762 28.6952 15.6762 31.5571C15.6762 34.419 17.9952 36.7381 20.8571 36.7381C23.719 36.7381 26.2464 34.4833 26.2464 31.6214C26.2464 31.5083 26.2964 8.29524 26.2964 8.29524H31.0774C31.5274 12.5702 34.9786 15.944 39.2929 16.2536V21.8131Z" fill="white"/>
</svg>
